# xmcd
#
# Track frame offsets:
#	150
#	4275
#	20272
#	33300
#	48768
#	64829
#	83758
#	106672
#	125417
#	136219
#	194186
#	211602
#	225079
#	238833
#	255076
#	266958
#	289624
#	309350
#
# Disc length: 4474 seconds
#
# Revision: 1
# Processed by: cddbd v1.5.2PL0 Copyright (c) Steve Scherf et al.
# Submitted via: audiograbber 1.83.01
#
DISCID=e6117812
DTITLE=NRPS - 76-06-25 Calderone Concert Hall, Hempstead NY
DYEAR=1900
DGENRE=
TTITLE0=Radio Intro
TTITLE1=Panama Red
TTITLE2=Little Old Lady
TTITLE3=Honky Tonkin'
TTITLE4=15 Days Under The Hood
TTITLE5=Annie May
TTITLE6=Henry
TTITLE7=Don't Put Her Down
TTITLE8=Ashes Of Love
TTITLE9=Portland Woman
TTITLE10=Whiskey
TTITLE11=She's Better Looking Every Beer
TTITLE12=Teardrops In My Eyes
TTITLE13=I Heard You Been Layin' My Old Lady
TTITLE14=The Swimming Song
TTITLE15=You Never Can Tell
TTITLE16=Hard To Handle
TTITLE17=Glendale Train
EXTD=
EXTT0=
EXTT1=
EXTT2=
EXTT3=
EXTT4=
EXTT5=
EXTT6=
EXTT7=
EXTT8=
EXTT9=
EXTT10=
EXTT11=
EXTT12=
EXTT13=
EXTT14=
EXTT15=
EXTT16=
EXTT17=
PLAYORDER=
